<svg width="24" height="24" viewBox="0 0 48 48" fill="none" xmlns="http://www.w3.org/2000/svg">
<path d="M38.4967 20.9897L38.4556 20.8822L34.372 10.2279C34.2904 10.0192 34.1437 9.84336 33.9526 9.7219C33.7623 9.59983 33.5391 9.54228 33.3126 9.55429C33.0874 9.56631 32.8711 9.64854 32.6946 9.78895C32.5194 9.93064 32.3929 10.1223 32.3334 10.3386L29.5762 18.7771H18.4211L15.6639 10.3386C15.6044 10.1223 15.4779 9.93064 15.3027 9.78895C15.1262 9.64854 14.9099 9.56631 14.6847 9.55429C14.4583 9.54228 14.235 9.59983 14.0446 9.7219C13.8536 9.84336 13.7068 10.0192 13.6252 10.2279L9.54167 20.8828L9.50054 20.9897C8.29052 24.146 9.32153 27.7141 12.0161 29.7521C12.0212 29.7553 12.0256 29.759 12.0306 29.7628L12.0667 29.7901L18.2869 34.4467L21.3636 36.7756L23.2359 38.1913C23.6868 38.5328 24.3105 38.5328 24.7615 38.1913L26.6337 36.7756L29.7097 34.4467L35.9667 29.7628C35.9724 29.7584 35.9775 29.7547 35.983 29.7502C38.6758 27.7121 39.7062 24.1454 38.4967 20.9897Z" fill="#E24329"/>
<path d="M38.4966 20.9903L38.4555 20.8828C36.4296 21.2991 34.5636 22.1562 32.9658 23.3515C32.9399 23.3706 28.1106 27.0228 23.9985 30.1317C27.0518 32.4403 29.7096 34.4473 29.7096 34.4473L35.9666 29.7634C35.9723 29.7591 35.9774 29.7553 35.9831 29.7508C38.6757 27.7128 39.7061 24.1461 38.4966 20.9903Z" fill="#FC6D26"/>
<path d="M18.2871 34.4465L21.3637 36.7756L23.236 38.1911C23.6869 38.5327 24.3106 38.5327 24.7617 38.1911L26.634 36.7756L29.7099 34.4465C29.7099 34.4465 27.052 32.4395 23.9988 30.1309C20.945 32.4395 18.2871 34.4465 18.2871 34.4465Z" fill="#FCA326"/>
<path d="M15.0307 23.3509C13.4336 22.1561 11.5683 21.2984 9.54167 20.8828L9.50054 20.9897C8.29052 24.146 9.32153 27.7141 12.0161 29.7521C12.0212 29.7553 12.0256 29.759 12.0306 29.7628L12.0667 29.7901L18.287 34.4467C18.287 34.4467 20.9448 32.4397 23.9986 30.131C19.8866 27.0221 15.0566 23.3699 15.0307 23.3509Z" fill="#FC6D26"/>
</svg>
