<svg width="500" height="500" viewBox="0 0 500 500" fill="none" xmlns="http://www.w3.org/2000/svg">
<path d="M350.279 16.0156H149.721C75.8777 16.0156 16.0159 75.8775 16.0159 149.721V350.279C16.0159 424.122 75.8777 483.984 149.721 483.984H350.279C424.122 483.984 483.984 424.122 483.984 350.279V149.721C483.984 75.8775 424.122 16.0156 350.279 16.0156Z" fill="#D1FE17"/>
<path d="M380.234 248.249L379.986 245.461C377.634 218.702 360.68 168.357 313.654 168.357C278.757 168.357 252.395 203.739 229.131 234.934C210.567 259.915 194.483 281.345 176.784 281.345C172.08 280.84 166.017 278.43 162.307 272.976C158.964 268.029 158.099 261.689 159.83 254.081C162.551 242.033 178.146 230.873 194.603 218.953C203.635 212.612 212.919 205.891 219.354 199.424C237.918 181.037 247.322 167.721 247.322 146.291C247.322 124.861 235.815 114.206 226.162 109.64C206.856 100.512 178.519 105.837 160.451 121.818C157.73 124.355 155.006 126.762 152.529 129.045C134.337 145.658 122.089 156.946 93.9959 148.319V183.065C131.244 199.933 162.555 167.721 174.436 152.885C183.592 143.121 193.245 137.413 200.425 137.413H200.797C204.014 137.54 206.736 138.81 208.718 141.092C211.936 144.898 213.174 149.337 212.553 154.281C211.191 164.682 200.673 176.852 181.367 190.169C158.72 205.767 120.854 231.891 117.881 264.735C115.653 288.325 127.534 311.911 146.098 321.038C189.41 342.09 215.771 305.821 243.736 267.524C265.145 237.976 285.441 209.951 313.657 209.951C339.026 209.951 348.43 231.509 348.43 245.08V247.744L345.954 248.249C284.451 259.41 250.913 318.504 250.913 345.769C250.913 373.034 273.436 396.369 301.156 396.369C333.58 396.369 373.675 367.963 380.11 288.07L380.358 285.155H405.975V248.253H380.234V248.249ZM346.696 289.208C341.747 337.016 317.862 359.336 303.384 359.336C296.825 359.336 287.669 353.756 287.669 343.359C287.669 331.694 304.622 296.311 342.737 285.787L347.192 284.646L346.696 289.211V289.208Z" fill="#111111"/>
</svg>
